<?xml version="1.0" encoding="UTF-8"?>
<svg width="245px" height="259px" viewBox="0 0 245 259" version="1.1" xmlns="http://www.w3.org/2000/svg" xmlns:xlink="http://www.w3.org/1999/xlink">
    <title>logo</title>
    <defs>
        <ellipse id="path-1" cx="40.6967773" cy="2.38648539" rx="1.875" ry="1.5"></ellipse>
        <filter x="-200.0%" y="-250.0%" width="500.0%" height="600.0%" filterUnits="objectBoundingBox" id="filter-2">
            <feMorphology radius="1" operator="dilate" in="SourceAlpha" result="shadowSpreadOuter1"></feMorphology>
            <feOffset dx="0" dy="0" in="shadowSpreadOuter1" result="shadowOffsetOuter1"></feOffset>
            <feGaussianBlur stdDeviation="1.5" in="shadowOffsetOuter1" result="shadowBlurOuter1"></feGaussianBlur>
            <feColorMatrix values="0 0 0 0 1   0 0 0 0 1   0 0 0 0 1  0 0 0 0.5 0" type="matrix" in="shadowBlurOuter1"></feColorMatrix>
        </filter>
        <ellipse id="path-3" cx="38.6928711" cy="10.6981299" rx="1.875" ry="1.5"></ellipse>
        <filter x="-200.0%" y="-250.0%" width="500.0%" height="600.0%" filterUnits="objectBoundingBox" id="filter-4">
            <feMorphology radius="1" operator="dilate" in="SourceAlpha" result="shadowSpreadOuter1"></feMorphology>
            <feOffset dx="0" dy="0" in="shadowSpreadOuter1" result="shadowOffsetOuter1"></feOffset>
            <feGaussianBlur stdDeviation="1.5" in="shadowOffsetOuter1" result="shadowBlurOuter1"></feGaussianBlur>
            <feColorMatrix values="0 0 0 0 1   0 0 0 0 1   0 0 0 0 1  0 0 0 0.5 0" type="matrix" in="shadowBlurOuter1"></feColorMatrix>
        </filter>
        <ellipse id="path-5" cx="10.7839539" cy="33.602749" rx="1.875" ry="1.5"></ellipse>
        <filter x="-200.0%" y="-250.0%" width="500.0%" height="600.0%" filterUnits="objectBoundingBox" id="filter-6">
            <feMorphology radius="1" operator="dilate" in="SourceAlpha" result="shadowSpreadOuter1"></feMorphology>
            <feOffset dx="0" dy="0" in="shadowSpreadOuter1" result="shadowOffsetOuter1"></feOffset>
            <feGaussianBlur stdDeviation="1.5" in="shadowOffsetOuter1" result="shadowBlurOuter1"></feGaussianBlur>
            <feColorMatrix values="0 0 0 0 1   0 0 0 0 1   0 0 0 0 1  0 0 0 0.5 0" type="matrix" in="shadowBlurOuter1"></feColorMatrix>
        </filter>
        <ellipse id="path-7" cx="28.30495" cy="35.9699365" rx="1.875" ry="1.5"></ellipse>
        <filter x="-200.0%" y="-250.0%" width="500.0%" height="600.0%" filterUnits="objectBoundingBox" id="filter-8">
            <feMorphology radius="1" operator="dilate" in="SourceAlpha" result="shadowSpreadOuter1"></feMorphology>
            <feOffset dx="0" dy="0" in="shadowSpreadOuter1" result="shadowOffsetOuter1"></feOffset>
            <feGaussianBlur stdDeviation="1.5" in="shadowOffsetOuter1" result="shadowBlurOuter1"></feGaussianBlur>
            <feColorMatrix values="0 0 0 0 1   0 0 0 0 1   0 0 0 0 1  0 0 0 0.5 0" type="matrix" in="shadowBlurOuter1"></feColorMatrix>
        </filter>
        <linearGradient x1="102.003581%" y1="33.7682531%" x2="2.63943142%" y2="65.2107357%" id="linearGradient-9">
            <stop stop-color="#5AECFE" offset="0%"></stop>
            <stop stop-color="#0593ED" offset="100%"></stop>
        </linearGradient>
        <path d="M77.5,170.5 L77.5,87.5" id="path-10"></path>
        <filter x="-700.0%" y="-6.0%" width="1500.0%" height="116.7%" filterUnits="objectBoundingBox" id="filter-11">
            <feMorphology radius="0.5" operator="dilate" in="SourceAlpha" result="shadowSpreadOuter1"></feMorphology>
            <feOffset dx="0" dy="2" in="shadowSpreadOuter1" result="shadowOffsetOuter1"></feOffset>
            <feMorphology radius="1" operator="erode" in="SourceAlpha" result="shadowInner"></feMorphology>
            <feOffset dx="0" dy="2" in="shadowInner" result="shadowInner"></feOffset>
            <feComposite in="shadowOffsetOuter1" in2="shadowInner" operator="out" result="shadowOffsetOuter1"></feComposite>
            <feGaussianBlur stdDeviation="2" in="shadowOffsetOuter1" result="shadowBlurOuter1"></feGaussianBlur>
            <feColorMatrix values="0 0 0 0 0   0 0 0 0 0   0 0 0 0 0  0 0 0 0.5 0" type="matrix" in="shadowBlurOuter1"></feColorMatrix>
        </filter>
        <path d="M163.5,170.5 L163.5,87.5" id="path-12"></path>
        <filter x="-700.0%" y="-6.0%" width="1500.0%" height="116.7%" filterUnits="objectBoundingBox" id="filter-13">
            <feMorphology radius="0.5" operator="dilate" in="SourceAlpha" result="shadowSpreadOuter1"></feMorphology>
            <feOffset dx="0" dy="2" in="shadowSpreadOuter1" result="shadowOffsetOuter1"></feOffset>
            <feMorphology radius="1" operator="erode" in="SourceAlpha" result="shadowInner"></feMorphology>
            <feOffset dx="0" dy="2" in="shadowInner" result="shadowInner"></feOffset>
            <feComposite in="shadowOffsetOuter1" in2="shadowInner" operator="out" result="shadowOffsetOuter1"></feComposite>
            <feGaussianBlur stdDeviation="2" in="shadowOffsetOuter1" result="shadowBlurOuter1"></feGaussianBlur>
            <feColorMatrix values="0 0 0 0 0   0 0 0 0 0   0 0 0 0 0  0 0 0 0.5 0" type="matrix" in="shadowBlurOuter1"></feColorMatrix>
        </filter>
        <linearGradient x1="3.81076389%" y1="100%" x2="103.027344%" y2="100%" id="linearGradient-14">
            <stop stop-color="#2CB1FE" offset="0%"></stop>
            <stop stop-color="#5FF8FE" offset="100%"></stop>
        </linearGradient>
        <linearGradient x1="3.81076389%" y1="100%" x2="91.5579044%" y2="100%" id="linearGradient-15">
            <stop stop-color="#4CF1FE" offset="0%"></stop>
            <stop stop-color="#0AB1ED" offset="100%"></stop>
        </linearGradient>
        <radialGradient cx="30.3398904%" cy="18.4099539%" fx="30.3398904%" fy="18.4099539%" r="50%" id="radialGradient-16">
            <stop stop-color="#FFFFFF" offset="0%"></stop>
            <stop stop-color="#2AF8FE" offset="100%"></stop>
        </radialGradient>
        <radialGradient cx="50%" cy="50%" fx="50%" fy="50%" r="50%" id="radialGradient-17">
            <stop stop-color="#FFFFFF" offset="0%"></stop>
            <stop stop-color="#2AF8FE" offset="100%"></stop>
        </radialGradient>
        <radialGradient cx="67.603181%" cy="63.1517679%" fx="67.603181%" fy="63.1517679%" r="49.1058843%" id="radialGradient-18">
            <stop stop-color="#FFFFFF" offset="0%"></stop>
            <stop stop-color="#2AF8FE" offset="100%"></stop>
        </radialGradient>
        <radialGradient cx="40.8571028%" cy="65.2704806%" fx="40.8571028%" fy="65.2704806%" r="26.3026643%" id="radialGradient-19">
            <stop stop-color="#FFFFFF" offset="0%"></stop>
            <stop stop-color="#2AF8FE" offset="100%"></stop>
        </radialGradient>
        <radialGradient cx="41.8891621%" cy="36.5726158%" fx="41.8891621%" fy="36.5726158%" r="65.0249569%" id="radialGradient-20">
            <stop stop-color="#FFFFFF" offset="0%"></stop>
            <stop stop-color="#2AF8FE" offset="100%"></stop>
        </radialGradient>
    </defs>
    <g id="Page-1" stroke="none" stroke-width="1" fill="none" fill-rule="evenodd">
        <g id="1024x1024" transform="translate(-140, -368)">
            <g id="logo" transform="translate(142, 370)">
                <g id="Group-10" transform="translate(164.1782, 95.1135)">
                    <g id="Oval" transform="translate(40.6968, 2.3865) rotate(135) translate(-40.6968, -2.3865)">
                        <use fill="black" fill-opacity="1" filter="url(#filter-2)" xlink:href="#path-1"></use>
                        <use fill="#C0EAFC" fill-rule="evenodd" xlink:href="#path-1"></use>
                    </g>
                    <polyline id="Path-12" stroke="#EFFEFF" points="0 22.3742784 14.5729797 14.0134385 30.2182617 14.0134385 40.6967773 2.38648539 55.6396484 0.386485387"></polyline>
                </g>
                <g id="Group-10-Copy" transform="translate(191.659, 149.5173) scale(-1, -1) translate(-191.659, -149.5173)translate(163.5001, 142)">
                    <polyline id="Path-11" stroke="#EFFEFF" points="56.3177711 15.034668 46.125605 15.034668 20.3178711 -4.67624027e-17 -1.38297337e-15 0"></polyline>
                    <g id="oval" transform="translate(38.6929, 10.6981) rotate(30) translate(-38.6929, -10.6981)">
                        <use fill="black" fill-opacity="1" filter="url(#filter-4)" xlink:href="#path-3"></use>
                        <use fill="#73D2FB" fill-rule="evenodd" xlink:href="#path-3"></use>
                    </g>
                </g>
                <g id="Group-12" transform="translate(38.5898, 147.6338)">
                    <polyline id="Path-14" stroke="#C3FDFF" points="38.9101562 0 24.3813477 10.3662109 10.6723633 33.8662109 9.68335059e-16 39.2700195"></polyline>
                    <g id="oval-copy" transform="translate(10.784, 33.6027) rotate(150) translate(-10.784, -33.6027)">
                        <use fill="black" fill-opacity="1" filter="url(#filter-6)" xlink:href="#path-5"></use>
                        <use fill="#73D2FB" fill-rule="evenodd" xlink:href="#path-5"></use>
                    </g>
                </g>
                <g id="Group-11" transform="translate(30.0688, 73.2666)">
                    <g id="oval" transform="translate(28.3049, 35.9699) rotate(45) translate(-28.3049, -35.9699)">
                        <use fill="black" fill-opacity="1" filter="url(#filter-8)" xlink:href="#path-7"></use>
                        <use fill="#73D2FB" fill-rule="evenodd" xlink:href="#path-7"></use>
                    </g>
                    <polyline id="Path-13" stroke="#D8FEFF" points="43.9506836 51.0561523 20.6850586 28.9287109 5.14941406 24.2333984 -1.34045388e-15 -4.59179085e-16"></polyline>
                </g>
                <g id="lines-white" transform="translate(83, 84.5)" stroke="#E3FCFD" stroke-linecap="square" stroke-width="2">
                    <g id="Group-2" transform="translate(0, 54)">
                        <line x1="0.5" y1="22" x2="29.5" y2="1" id="Line-2"></line>
                        <line x1="45" y1="21.5" x2="74" y2="0.5" id="Line-2" transform="translate(59.5, 11) scale(-1, 1) translate(-59.5, -11)"></line>
                    </g>
                    <g id="Group" transform="translate(37.25, 11.25) scale(1, -1) translate(-37.25, -11.25)">
                        <line x1="0.5" y1="22" x2="29.5" y2="1" id="Line"></line>
                        <line x1="45" y1="21.5" x2="74" y2="0.5" id="Line" transform="translate(59.5, 11) scale(-1, 1) translate(-59.5, -11)"></line>
                    </g>
                </g>
                <g id="lines-blue" transform="translate(78.5, 83.5)" stroke="#0C5982" stroke-linecap="square">
                    <g id="Group-3" transform="translate(0, 49)">
                        <line x1="0.5" y1="28" x2="27.5" y2="1.84574578e-14" id="Line-3"></line>
                        <line x1="56" y1="28" x2="83" y2="1.84574578e-14" id="Line-3" transform="translate(69.5, 14) scale(-1, 1) translate(-69.5, -14)"></line>
                    </g>
                    <g id="Group-3" transform="translate(41.75, 14) scale(1, -1) translate(-41.75, -14)">
                        <line x1="0.5" y1="28" x2="27.5" y2="1.84574578e-14" id="Line-3"></line>
                        <line x1="56" y1="28" x2="83" y2="1.84574578e-14" id="Line-3" transform="translate(69.5, 14) scale(-1, 1) translate(-69.5, -14)"></line>
                    </g>
                </g>
                <line x1="13.5" y1="177.5" x2="98.5" y2="129.5" id="Line" stroke="url(#linearGradient-9)" stroke-width="5" stroke-linecap="square"></line>
                <g id="Line-5" stroke-linecap="square">
                    <use fill="black" fill-opacity="1" filter="url(#filter-11)" xlink:href="#path-10"></use>
                    <use stroke="#12D3F3" stroke-width="1" xlink:href="#path-10"></use>
                </g>
                <g id="Line-5-Copy" stroke-linecap="square">
                    <use fill="black" fill-opacity="1" filter="url(#filter-13)" xlink:href="#path-12"></use>
                    <use stroke="#12D3F3" stroke-width="1" xlink:href="#path-12"></use>
                </g>
                <g id="Group-9" transform="translate(77, 60)" stroke="#12D3F3" stroke-linecap="square">
                    <line x1="0.5" y1="24.5" x2="43.5" y2="0.5" id="Line-6"></line>
                    <line x1="44" y1="24" x2="86.5" y2="0.5" id="Line-6" transform="translate(65, 12.5) scale(-1, 1) translate(-65, -12.5)"></line>
                </g>
                <g id="Group-9" transform="translate(120.25, 181.25) scale(1, -1) translate(-120.25, -181.25)translate(77, 168.5)" stroke="#12D3F3" stroke-linecap="square">
                    <line x1="0.5" y1="25" x2="43.5" y2="0.5" id="Line-6"></line>
                    <line x1="44" y1="24.5" x2="86.5" y2="0.5" id="Line-6" transform="translate(65, 12.5) scale(-1, 1) translate(-65, -12.5)"></line>
                </g>
                <g id="Group-6" transform="translate(12, 54)">
                    <g id="Group-4" transform="translate(0, 74)" stroke-linecap="square" stroke-width="7">
                        <line x1="0.5" y1="0.5" x2="84.5" y2="0.5" id="Line-4" stroke="url(#linearGradient-14)"></line>
                        <line x1="131.5" y1="0.5" x2="218.5" y2="0.5" id="Line-4" stroke="url(#linearGradient-15)"></line>
                    </g>
                    <g id="Group-8" transform="translate(76.8873, 42.8873)">
                        <rect id="Rectangle" fill="#A0F3FD" transform="translate(31.1127, 31.1127) rotate(45) translate(-31.1127, -31.1127)" x="25.1126984" y="25.1126984" width="12" height="12"></rect>
                        <path d="M53.1126984,9.11269837 L53.1126984,53.1126984 L9.11269837,53.1126984 L9.11269837,9.11269837 L53.1126984,9.11269837 Z M43.2126984,19.0126984 L19.0126984,19.0126984 L19.0126984,43.2126984 L43.2126984,43.2126984 L43.2126984,19.0126984 Z" id="Combined-Shape" fill="#E4FBFE" transform="translate(31.1127, 31.1127) rotate(45) translate(-31.1127, -31.1127)"></path>
                    </g>
                    <g id="Group-5" transform="translate(55, 0)">
                        <circle id="Oval" fill="url(#radialGradient-16)" cx="53.5" cy="137" r="10"></circle>
                        <circle id="Oval" fill="url(#radialGradient-17)" cx="53.5" cy="10" r="10"></circle>
                        <circle id="Oval" fill="url(#radialGradient-17)" cx="96.2" cy="114" r="10"></circle>
                        <circle id="Oval" fill="url(#radialGradient-18)" cx="10" cy="114" r="10"></circle>
                        <circle id="Oval" fill="url(#radialGradient-19)" cx="96.2" cy="75" r="10"></circle>
                        <circle id="Oval" fill="url(#radialGradient-20)" cx="10" cy="75" r="10"></circle>
                        <circle id="Oval" fill="url(#radialGradient-17)" cx="96.2" cy="32" r="10"></circle>
                        <circle id="Oval" fill="url(#radialGradient-17)" cx="10" cy="32" r="10"></circle>
                    </g>
                </g>
                <g id="Group-7">
                    <path d="M1.42108547e-14,170.375508 C1.42108547e-14,104.565612 1.42108547e-14,71.6606646 1.42108547e-14,71.6606646 C1.42108547e-14,67.8891802 1.58300781,64.0639849 5.93164062,61.5805864 C5.93164062,61.5805864 115.164062,1.33644582 115.164062,1.33644582 C118.370117,-0.0951665405 121.606934,-0.764628403 125.859375,1.33644582 C125.859375,1.33644582 233.198242,61.5805864 233.198242,61.5805864 C239.138617,65.3227309 240.475195,66.6298409 240.930664,73.8257036 C240.930664,76.7973833 240.930664,181.188008 240.930664,183.743672 C240.689686,189.201983 240.171373,190.578004 235.655273,193.316915 C235.655273,193.316915 199.056641,213.388529 125.859375,253.531758 C121.920864,255.134286 118.35576,255.134286 115.164062,253.531758 C115.164062,253.531758 5.93164062,193.316915 5.93164062,193.316915 C2.82701344,191.435547 0.8497999,188.244466 1.42108547e-14,183.743672 L15.5546875,175.156758 L120.465332,233.022969 L220.717773,178.109883 L220.717773,140.126485 L235.655273,133.01711 L220.717773,118.458516 L220.717773,76.7973833 L120.465332,21.9526568 L20.7714844,76.7973833 C20.7714844,128.943379 20.7714844,155.138366 20.7714844,155.382344 C20.6058258,159.481916 20.3647982,160.592948 17.2958984,162.808126 C17.2958984,162.808126 11.530599,165.330586 1.42108547e-14,170.375508 Z" id="Path-8" stroke="#61F5FE" stroke-width="3" fill="#30D8FB"></path>
                    <path d="M2.02612305,184.379659 C2.02612305,184.379659 6.50683594,181.876485 15.4682617,176.870137 L119.223047,234.16668 L119.223047,253.148458 C117.794888,252.965749 116.598876,252.60792 115.63501,252.074971 C115.63501,252.074971 5.2824707,191.563008 5.2824707,191.563008 C3.21704102,190.086446 0.270345832,187.051798 2.02612305,184.379659 Z" id="Path-9" fill="#0382E0"></path>
                    <path d="M119.223047,253.148458 C119.833904,253.580586 120.772712,253.580586 121.523047,253.148458 C121.523047,253.148458 121.523047,246.789571 121.523047,234.071797 L120.471234,234.722432 L119.223047,233.942403 C119.223047,246.746439 119.223047,253.148458 119.223047,253.148458 Z" id="Path-10" fill="#B3F4FC"></path>
                </g>
            </g>
        </g>
    </g>
</svg>