<?xml version="1.0" encoding="UTF-8"?>
<svg width="512px" height="128px" viewBox="0 0 512 128" version="1.1" xmlns="http://www.w3.org/2000/svg" xmlns:xlink="http://www.w3.org/1999/xlink">
    <title>sjdc_light_bg_512x128@1x</title>
    <g id="sjdc_light_bg_512x128" stroke="none" stroke-width="1" fill="none" fill-rule="evenodd">
        <rect fill="#FFFFFF" x="0" y="0" width="512" height="128"></rect>
        <rect id="Rectangle" fill="#FFFFFF" x="0" y="0" width="512" height="128"></rect>
        <g id="ssjdc.ai" transform="translate(27, 22)">
            <path d="M24.15625,15.360625 C24.15625,15.360625 66.8012729,15.360625 67.3300781,15.360625 C69.0485323,15.360625 70.4628906,14.7596359 70.4628906,13.1379688 C70.4628906,13.1379688 70.4628906,2.09207031 70.4628906,2.09207031 C70.4628906,0.356915052 69.0054251,7.95807864e-13 67.3300781,7.95807864e-13 C67.3300781,7.95807864e-13 21.1103516,7.95807864e-13 21.1103516,7.95807864e-13 C9.90673828,7.95807864e-13 0.208930528,10.4608632 0.208930528,18.2888477 C0.208930528,18.2888477 0.208930528,29.2190411 0.208930528,29.4635758 C0.208930528,37.185332 8.47893688,46.6687238 21.1103516,47.7405078 C21.1103516,47.7405078 48.1699219,50.1467578 48.1699219,50.1467578 C54.2373047,50.8332813 54.9638672,54.3030078 54.9638672,55.5110156 C54.9638672,55.5110156 54.9638672,63.8244922 54.9638672,63.8244922 C54.9638672,67.7556445 52.1391602,69.5285937 48.1699219,69.5285937 C48.1699219,69.5285937 2.875,69.5285937 2.875,69.5285937 C0.99933731,69.6432417 5.68434189e-14,71.1119836 5.68434189e-14,72.4729297 C5.68434189e-14,72.4729297 5.68434189e-14,82.4289844 5.68434189e-14,82.4289844 C5.68434189e-14,84.0067345 0.42349846,84.8860156 2.150975,84.8860156 C2.150975,84.8860156 51.0634766,84.8860156 51.0634766,84.8860156 C59.8320313,84.8860156 72.4462891,78.0767441 72.4462891,64.8782031 C72.4462891,64.8782031 72.4462891,54.1550586 72.4462891,54.1550586 C72.4462891,49.6736133 69.1523438,37.4245898 51.0634766,35.97 C51.0634766,35.97 24.15625,33.5412891 24.15625,33.5412891 C18.2299805,32.8005664 16.9228516,30.4959385 16.9228516,27.8157031 C16.9228516,27.2095983 16.9228516,21.0969531 16.9228516,21.0969531 C16.9228516,18.9500528 16.9228516,15.360625 24.15625,15.360625 Z" id="Path" stroke="#2856A8" fill="#2856A8"></path>
            <path d="M80.3828125,69.53 C79.3378416,69.53 78.4995117,70.0407684 78.4995117,71.329375 C78.4995117,71.329375 78.4995117,82.4436328 78.4995117,82.4436328 C78.4995117,84.1015704 79.1293593,84.8860156 80.3828125,84.8860156 C80.3828125,84.8860156 101.20752,84.8860156 101.20752,84.8860156 C109.686523,84.8860156 128.414062,75.8132617 128.414062,55.860625 C128.414062,55.860625 128.414062,1.71023438 128.414062,1.71023438 C128.414062,0.323604902 127.539392,8.52651283e-13 126.377441,8.52651283e-13 C126.377441,8.52651283e-13 91.925293,8.52651283e-13 91.925293,8.52651283e-13 C91.0146836,0.0275467152 90.2124023,0.632213642 90.2124023,1.71 C90.2124023,1.71 90.2124023,13.716582 90.2124023,13.716582 C90.2124023,14.9205044 90.9570478,15.2782899 91.925293,15.36 C91.925293,15.36 109.686523,15.36 109.686523,15.36 C110.364802,15.392007 110.910412,15.125968 110.946777,16.2575977 C110.946777,16.2575977 110.946777,54.5769336 110.946777,54.5769336 C110.946777,61.5403125 105.337891,69.53 98.3793945,69.53 C98.3793945,69.53 80.3828125,69.53 80.3828125,69.53 Z" id="Path-2" stroke="#2856A8" fill="#2856A8"></path>
            <path d="M185.996582,9.66338121e-13 C210.193104,9.66338121e-13 222.210449,17.7776172 222.978516,34.8425586 L222.978516,49.1716602 C222.978516,68.1706836 207.071289,84.8860156 185.996582,84.8860156 L145.45752,84.8860156 C144.189814,84.8414004 143.354433,84.728483 143.319824,83.3840625 L143.319824,1.75173828 C143.35617,0.333997969 144.29762,0.0501447499 145.45752,9.66338121e-13 L185.996582,9.66338121e-13 Z M184.892611,15.36 L162.500594,15.36 C161.859916,15.3917222 161.340211,15.5974354 161.319824,16.4981725 L161.319824,67.53 C161.338941,68.3804979 161.800369,68.5017758 162.500594,68.53 L184.892611,68.53 C196.533363,68.53 205.319824,58.5156631 205.319824,46.4966332 L205.319824,37.4318568 C204.895578,26.6363524 198.257718,15.36 184.892611,15.36 Z" id="Combined-Shape" stroke="#2856A8" fill="#2856A8"></path>
            <path d="M305.516602,13.3601367 C305.516602,12.9992969 305.516602,1.43533203 305.516602,1.43533203 C305.516602,0.450712891 305.075195,8.52651283e-13 304.205078,8.52651283e-13 C304.205078,8.52651283e-13 263.839355,8.52651283e-13 263.839355,8.52651283e-13 C238.411133,8.52651283e-13 230.184082,25.5925586 230.184082,35.5027148 C230.184082,35.5027148 230.184082,48.9446094 230.184082,48.9446094 C230.184082,66.4719531 247.015625,84.8860909 267.850342,84.8860909 C268.189453,84.8860909 304.205078,84.8860909 304.205078,84.8860909 C305.516602,84.89 306.194824,83.4936816 306.194824,82.44 C306.194824,82.44 306.194824,71.9162891 306.194824,71.9162891 C306.194824,70.5010059 305.506579,70.0310888 304.205078,69.9607227 C304.205078,69.9607227 270.024414,69.9607227 270.024414,69.9607227 C256.546875,69.9607227 247.015625,58.2610156 247.015625,48.9446094 C247.015625,48.9446094 247.015625,35.5027148 247.015625,35.5027148 C247.015625,24.7024219 255.866699,14.529082 263.839355,14.529082 C263.839355,14.529082 304.205078,14.529082 304.205078,14.529082 C305.072266,14.529082 305.516602,14.1096484 305.516602,13.3601367 Z" id="Path-4" stroke="#2856A8" fill="#2856A8"></path>
            <path d="M317.001953,82.44 C317.001953,82.44 317.001953,71.92 317.001953,71.92 C317.001953,70.3008105 317.206503,69.53 318.867187,69.53 C318.867188,69.53 331.299805,69.53 331.299805,69.53 C332.757568,69.53 333.479004,70.5097949 333.479004,71.92 C333.479004,71.92 333.479004,82.44 333.479004,82.44 C333.479004,83.612334 333.325623,84.8860156 332.020508,84.89 C331.299805,84.8860156 318.867187,84.89 318.867187,84.89 C317.439453,84.8860156 317.001953,83.7429492 317.001953,82.44 Z" id="Path-5" stroke="#D75E2B" fill="#D75E2B"></path>
            <path d="M343.064453,84.8867301 C343.350586,84.8867301 356.86316,84.8867301 356.86731,84.8867301 C358.290527,84.8867301 358.694986,84.1166039 359.301758,82.6487109 C359.301758,82.6487109 368.119466,60.1641732 385.754883,15.1950977 L386.741211,15.1950977 C404.074219,60.1641732 412.740723,82.6487109 412.740723,82.6487109 C413.462903,84.374964 413.979492,84.8867301 415.896484,84.8867301 C416.282227,84.8867301 428.961304,84.8867301 429.252441,84.8867301 C430.570312,84.8867301 431.550399,83.9610209 431.064941,82.6487109 C431.064941,82.6487109 399.079102,3.32009766 399.079102,3.32009766 C398.0745,1.0111049 397.554443,7.38964445e-13 395.128418,7.38964445e-13 C395.128418,7.38964445e-13 377.69043,7.38964445e-13 377.69043,7.38964445e-13 C375.183838,7.38964445e-13 374.5221,0.936465709 373.48877,3.32009766 C373.48877,3.32009766 341.861328,82.6487109 341.861328,82.6487109 C341.423742,83.8218562 341.861328,84.89 343.064453,84.8867301 Z" id="Path-6" stroke="#D75E2B" fill="#D75E2B"></path>
            <path d="M443.131133,84.8864445 C443.92041,84.8864445 454.287842,84.8864445 455.280273,84.8864445 C456.552117,84.7017411 457.793457,84.129668 457.793457,82.7571094 C457.793457,81.1008594 457.793457,3.46316406 457.793457,2.15408203 C457.793457,0.7434375 456.505615,0 455.280273,0 C454.280029,0 443.656494,0 443.131133,0 C441.695313,0 440.560547,0 440.560547,2.15408203 C440.560547,3.12087891 440.560547,81.8359668 440.560547,82.7571094 C440.560547,83.8025195 441.830981,84.6983663 443.131133,84.8864445 Z" id="Path-7" stroke="#D75E2B" fill="#D75E2B"></path>
        </g>
    </g>
</svg>